<svg width="24" height="24" viewBox="0 0 24 24" fill="none" xmlns="http://www.w3.org/2000/svg">
<g clip-path="url(#clip0_53_8657)">
<path d="M12 15.9844C14.2005 15.9844 15.9844 14.2005 15.9844 12C15.9844 9.79949 14.2005 8.01562 12 8.01562C9.79949 8.01562 8.01562 9.79949 8.01562 12C8.01562 14.2005 9.79949 15.9844 12 15.9844Z" fill="white" fill-opacity="0.7"/>
<path d="M6.73298 10.8474C7.2623 8.42705 9.42225 6.60938 11.9992 6.60938H22.727C22.1578 5.47936 21.4051 4.43541 20.4845 3.51469C18.2179 1.24823 15.2045 0 11.9992 0C8.79384 0 5.78039 1.24823 3.51384 3.51469C3.29588 3.73266 3.08756 3.95766 2.88867 4.18894L6.73298 10.8474Z" fill="white" fill-opacity="0.7"/>
<path d="M13.635 17.1376C13.1191 17.3022 12.5698 17.3913 12 17.3913C9.99759 17.3913 8.24681 16.2938 7.31728 14.6687C7.31063 14.6585 7.30402 14.6483 7.29783 14.6376L1.96927 5.4082C0.688172 7.34883 0 9.6218 0 12.0007C0 15.206 1.24823 18.2195 3.51469 20.486C5.25108 22.2224 7.42608 23.3602 9.78966 23.7979L13.635 17.1376Z" fill="white" fill-opacity="0.7"/>
<path d="M15.6277 8.01562C16.7105 9.00225 17.3911 10.4231 17.3911 12C17.3911 12.9918 17.1216 13.9216 16.6524 14.7208C16.6476 14.73 16.6435 14.7393 16.6383 14.7484L11.3086 23.9797C11.5381 23.9927 11.7688 24 12.0005 24C15.2058 24 18.2193 22.7518 20.4858 20.4853C22.7523 18.2188 24.0005 15.2053 24.0005 12C24.0005 10.6216 23.769 9.27891 23.3257 8.01562H15.6277Z" fill="white" fill-opacity="0.7"/>
</g>
<defs>
<clipPath id="clip0_53_8657">
<rect width="24" height="24" fill="white"/>
</clipPath>
</defs>
</svg>
