<svg width="54" height="54" viewBox="0 0 54 54" fill="none" xmlns="http://www.w3.org/2000/svg">
<rect x="1.5" y="1.57184" width="51" height="51" stroke="white" stroke-opacity="0.25"/>
<path d="M19 53.0718H1V35.0718" stroke="#007BFF"/>
<path d="M35 1.07184L53 1.07184L53 19.0718" stroke="#007BFF"/>
<path d="M0.999998 19.0718L0.999999 1.07184L19 1.07184" stroke="#007BFF"/>
<path d="M53 35.0718L53 53.0718L35 53.0718" stroke="#007BFF"/>
<g clip-path="url(#clip0_69_29)">
<path d="M40.6486 27.648C39.8447 26.7597 38.7006 26.2706 37.4719 26.2706C36.456 26.2706 35.6446 26.5452 35.0577 26.8706V18.1871H27.9146C28.2648 17.5079 28.4386 16.7552 28.4386 15.9141C28.4386 14.6854 27.9494 13.5658 27.0611 12.7617C26.2135 11.9944 25.0686 11.5718 23.8369 11.5718C22.6052 11.5718 21.4603 11.9944 20.6128 12.7615C19.7244 13.5656 19.2352 14.6852 19.2352 15.9139C19.2352 16.864 19.4754 17.6141 19.7729 18.187H12.1676V27.9743L12.8353 27.6396C13.4865 27.3008 14.1074 27.1497 14.8206 27.1497C15.8005 27.1497 16.696 27.5362 17.3312 28.2377C17.9532 28.9252 18.2989 29.8606 18.2989 30.872C18.2989 31.8858 17.9589 32.8213 17.3392 33.5063C16.7038 34.208 15.8139 34.5945 14.8315 34.5945C13.9127 34.5945 13.2686 34.3391 12.8311 34.1167L12.1674 33.7915V43.5715H20.8945L20.508 42.9093C20.1278 42.2581 19.9507 41.5989 19.9507 40.8351C19.9507 39.8601 20.3372 38.9734 21.0387 38.3382C21.7234 37.7184 22.6589 37.3772 23.673 37.3772C24.6855 37.3772 25.621 37.7193 26.3073 38.3404C27.009 38.9757 27.3955 39.8614 27.3955 40.8345C27.3955 41.6033 27.2226 42.2637 26.8518 42.9127L26.4754 43.5713H35.0577V34.8889C35.7913 35.2807 36.5824 35.4734 37.4719 35.4734C38.7006 35.4734 39.8324 34.9843 40.6364 34.096C41.4037 33.2485 41.8325 32.1034 41.8325 30.8717C41.8325 29.64 41.416 28.4955 40.6486 27.648Z" fill="#007BFF"/>
</g>
<defs>
<clipPath id="clip0_69_29">
<rect width="32" height="32" fill="white" transform="translate(11 11.5718)"/>
</clipPath>
</defs>
</svg>
