<svg width="54" height="54" viewBox="0 0 54 54" fill="none" xmlns="http://www.w3.org/2000/svg">
<rect x="1.5" y="1.5" width="51" height="51" stroke="white" stroke-opacity="0.25"/>
<path d="M19 53H1V35" stroke="#007BFF"/>
<path d="M35 1L53 0.999999L53 19" stroke="#007BFF"/>
<path d="M0.999998 19L0.999999 0.999999L19 1" stroke="#007BFF"/>
<path d="M53 35L53 53L35 53" stroke="#007BFF"/>
<g clip-path="url(#clip0_69_49)">
<path d="M31.043 12.5388C30.3802 11.8961 29.3539 11.1289 28.2305 11.1289C26.4077 11.1289 24.8403 13.1485 24.6682 13.3793C24.4549 13.6631 24.421 14.043 24.5794 14.3607L27.651 20.5664H34.4346L37.5067 14.3607C37.665 14.043 37.6312 13.6631 37.4179 13.3793C37.2457 13.1485 35.6783 11.1289 33.8555 11.1289C32.7321 11.1289 31.7058 11.8961 31.043 12.5388Z" fill="#007BFF"/>
<path d="M31.9804 22.4414V22.6025C31.9804 24.0408 32.5636 25.4489 33.5808 26.466C33.9469 26.8322 33.9469 27.4255 33.5808 27.7917C33.2146 28.1579 32.6213 28.1579 32.2551 27.7917C31.7763 27.3138 31.3698 26.7709 31.0429 26.184C30.7161 26.7709 30.3096 27.3138 29.8307 27.7917C29.4645 28.1579 28.8712 28.1579 28.505 27.7917C28.1388 27.4255 28.1388 26.8322 28.505 26.466C29.5223 25.4489 30.1054 24.0408 30.1054 22.6025V22.4414H26.5928C24.4303 24.4852 22.2847 27.263 20.8459 29.9414H29.1679C30.7188 29.9414 31.9804 31.203 31.9804 32.7539V42.1914C31.9804 42.5237 31.9124 42.8327 31.806 43.1289H33.0553C38.4538 43.1289 43.2929 41.9253 43.2929 36.5039C43.2929 32.1666 39.0628 25.9928 35.4265 22.4414H31.9804Z" fill="#007BFF"/>
<path d="M20.7305 38.3789C21.2482 38.3789 21.668 37.9592 21.668 37.4414C21.668 36.9236 21.2482 36.5039 20.7305 36.5039C20.2127 36.5039 19.793 36.9236 19.793 37.4414C19.793 37.9592 20.2127 38.3789 20.7305 38.3789Z" fill="#007BFF"/>
<path d="M12.2305 43.1289H29.168C29.6862 43.1289 30.1055 42.7096 30.1055 42.1914V32.7539C30.1055 32.2357 29.6862 31.8164 29.168 31.8164H12.2305C11.7123 31.8164 11.293 32.2357 11.293 32.7539V42.1914C11.293 42.7096 11.7123 43.1289 12.2305 43.1289ZM26.3555 36.5039C26.8732 36.5039 27.293 36.9235 27.293 37.4414C27.293 37.9592 26.8732 38.3789 26.3555 38.3789C25.8377 38.3789 25.418 37.9592 25.418 37.4414C25.418 36.9235 25.8377 36.5039 26.3555 36.5039ZM20.7305 34.6289C22.2813 34.6289 23.543 35.8905 23.543 37.4414C23.543 38.9923 22.2813 40.2539 20.7305 40.2539C19.1796 40.2539 17.918 38.9923 17.918 37.4414C17.918 35.8905 19.1796 34.6289 20.7305 34.6289ZM15.1055 36.5039C15.6232 36.5039 16.043 36.9235 16.043 37.4414C16.043 37.9592 15.6232 38.3789 15.1055 38.3789C14.5877 38.3789 14.168 37.9592 14.168 37.4414C14.168 36.9235 14.5877 36.5039 15.1055 36.5039Z" fill="#007BFF"/>
</g>
<defs>
<clipPath id="clip0_69_49">
<rect width="32" height="32" fill="white" transform="translate(11.293 11.1289)"/>
</clipPath>
</defs>
</svg>
