<svg width="54" height="54" viewBox="0 0 54 54" fill="none" xmlns="http://www.w3.org/2000/svg">
<rect x="1.5" y="1.5" width="51" height="51" stroke="white" stroke-opacity="0.25"/>
<path d="M19 53H1V35" stroke="#007BFF"/>
<path d="M35 1L53 0.999999L53 19" stroke="#007BFF"/>
<path d="M0.999998 19L0.999999 0.999999L19 1" stroke="#007BFF"/>
<path d="M53 35L53 53L35 53" stroke="#007BFF"/>
<g clip-path="url(#clip0_69_38)">
<path d="M12.9609 43.2715H26.1484C27.6993 43.2715 28.9609 42.0099 28.9609 40.459V35.709H22.3984C20.8476 35.709 19.5859 34.4474 19.5859 32.8965V19.7715C19.5859 18.2206 20.8476 16.959 22.3984 16.959H28.9609V14.084C28.9609 12.5331 27.6993 11.2715 26.1484 11.2715H12.9609C11.4101 11.2715 10.1484 12.5331 10.1484 14.084V40.459C10.1484 42.0099 11.4101 43.2715 12.9609 43.2715ZM19.5859 14.084C20.1037 14.084 20.5234 14.5661 20.5234 15.084C20.5234 15.6017 20.1037 16.0215 19.5859 16.0215C19.0682 16.0215 18.6484 15.6017 18.6484 15.084C18.6484 14.5661 19.0682 14.084 19.5859 14.084ZM18.6484 37.584H20.5234C21.0416 37.584 21.4609 38.0033 21.4609 38.5215C21.4609 39.0397 21.0416 39.459 20.5234 39.459H18.6484C18.1302 39.459 17.7109 39.0397 17.7109 38.5215C17.7109 38.0033 18.1302 37.584 18.6484 37.584Z" fill="#007BFF"/>
<path d="M41.2109 18.834H22.3984C21.8802 18.834 21.4609 19.2533 21.4609 19.7715V22.584H42.1484V19.7715C42.1484 19.2533 41.7291 18.834 41.2109 18.834Z" fill="#007BFF"/>
<path d="M21.4609 32.8965C21.4609 33.4147 21.8802 33.834 22.3984 33.834H41.2109C41.7291 33.834 42.1484 33.4147 42.1484 32.8965V24.459H21.4609V32.8965ZM35.5234 26.334H37.3984C37.9166 26.334 38.3359 26.7533 38.3359 27.2715C38.3359 27.7897 37.9166 28.209 37.3984 28.209H35.5234C35.0052 28.209 34.5859 27.7897 34.5859 27.2715C34.5859 26.7533 35.0052 26.334 35.5234 26.334Z" fill="#007BFF"/>
</g>
<defs>
<clipPath id="clip0_69_38">
<rect width="32" height="32" fill="white" transform="translate(10.1484 11.2715)"/>
</clipPath>
</defs>
</svg>
